<svg version="1.2" xmlns="http://www.w3.org/2000/svg" viewBox="0 0 214 212" width="214" height="212"><defs><clipPath clipPathUnits="userSpaceOnUse" id="cp1"><path d="m-0.25 0h214.5v212h-214.5z"/></clipPath></defs><style>.a{fill:#5ce1e6}.b{fill:none;stroke:#fffbfb;stroke-width:2.4}.c{fill:#ffbd59}</style><g clip-path="url(#cp1)"><path fill-rule="evenodd" class="a" d="m8 76.7q-0.2 0.9-0.4 1.8c-0.7 3.2-1.5 6.3-2 9.4-0.7 5.7-1.1 10.5-1 16.2 0 4.2 0.3 8.2 0.8 12.3 1.1 7.9 2.9 14.5 5.5 22q0.2 0.9 0.5 1.8c0.8 2.6 1.7 5.2 2.7 7.8 0.7 1.6 1.5 3.7 2.4 5.3 0.7 1.2 1.3 2.4 2 3.6 1.5 2.5 2.5 3.7 4.1 5.9q3.6 5.5 7.8 10.5c1.6 1.7 3.1 3.3 4.8 4.9-6.4-7.4 5 3.2 5.6 3.7 2.6 2.2 5.1 4.1 7.8 6 1.3 0.9 2.6 1.8 3.9 2.7l0.7 0.5c3.7 2.3 7.3 4.3 11.2 6.1l0.2 0.1c8 3.7 16.4 6.8 25.2 8.4 3.9 0.7 7.8 1 11.7 1.3q0.3 0 0.5 0 3 0.2 6 0.1 0.6 0 1.2 0 0.2 0 0.5 0-0.2 0-0.4 0-0.7 0-1.3-0.1c-0.6 0-1.2 0-1.9 0-0.6-0.1 1.9-0.1 1.9-0.1 0.4 0 1.1 0 1.1 0q0.2 0 0.5 0 1 0 2-0.1c1 0 1.9 0 2.8-0.1 0.5 0 0.9 0 1.4-0.1q1.7-0.1 3.4-0.3-0.4 0.1-0.8 0.2c-0.7 0.1-1.4 0.2-2 0.3q2.2-0.2 4.3-0.5c2.9-0.4 5.6-0.9 8.5-1.5 18.2-4.6 33.3-12.1 46.4-24.1 3.5-3.2 6.8-6.7 10.1-10.6-8 10.7-20.7 21-33.6 27.7 13.7-6.9 24.4-15.9 34.9-28.8 1.4-1.8 2.6-3.6 3.8-5.3q1.1-1.6 2-3.1 0.5-0.8 1-1.6c2.1-3.5 4.1-7.1 5.8-11.1 0.9-1.9 1.7-3.8 2.5-5.8 0.7-1.7 1.3-3.5 1.9-5.2q-0.7 2.5-1.5 4.8c-0.1 0.6-0.3 1.1-0.5 1.6-3.3 9.7-7.5 17.7-13.8 26.7 0 0-0.6 0.8-0.6 0.9 0-0.1 0.6-0.9 0.6-0.9 8.5-12 13.3-22.2 16.9-36.4 1.6-5.4 2.8-10.9 3.4-16.5 0.5-4.4 0.7-8.5 0.7-13-0.4-14.6-2.7-25.7-8.4-39.2-5.8-12.8-12-21.7-21.9-31.7-0.8-0.7-1.5-1.4-2.3-2.1-3.1-2.9-6-5.2-9.3-7.8-3.8-2.7-7.9-5.2-12.1-7.3 31.4 16.9 52.8 50 52.8 88.1 0 48.2-34.1 88.4-79.4 97.9-4.7 0.9-9.5 1.6-14.3 1.9q-1.1 0.1-2.2 0.1c0.7-0.1 1.4-0.1 2.1-0.2 0.4 0 0.8-0.1 1.2-0.1 1.4-0.2 2.8-0.5 4.3-0.6 1.8-0.2 3.4-0.6 5.1-0.9 1.1-0.2 2.1-0.4 3.1-0.8q0.2-0.1 0.5-0.1c1.2-0.2 2.3-0.4 3.5-0.6q2.7-0.7 5.4-1.5 2.4-0.8 4.7-1.7c1.9-0.7 3.9-1.5 5.8-2.4 2.5-1 5.1-2.3 7.4-3.7q2-1.1 3.9-2.3 0.9-0.7 1.8-1.4c-1.3 0.5-3.3 1.6-0.8-0.1 1.4-0.9 0.8-0.6 2.1-1.1l0.1 0.1c0.8-0.6 2.6-2.1 3.5-2.5q-0.4 0.5-0.8 1c2.5-1.7 3.1-2.2 5.2-4.1 3.1-2.8 6.2-5.5 9.1-8.6 1.7-1.8 3.4-3.7 5-5.7 10.2-13 16.9-26.5 20.1-42.8 1-5.3 1.5-10.1 2-15.5 0.1-1.4 0.1-2.9 0.2-4.3 0.1-14.1-2.1-25.4-7.2-38.6-2.3-5.6-4.9-10.9-8.2-16 3.2 5.8 5.3 10 7.6 16.2 0.2 0.6 4.1 14.3 2.9 10.8-0.3-1-1.7-4.7-1.5-4.3-0.1-0.4-0.3-0.9-0.5-1.3-0.6-1.6-1.2-3.2-1.9-4.7q-1.3-3.4-3-6.7 0.4 1.1 0.7 2.1c-0.3-0.7-0.6-1.3-0.9-1.9-1.3-2.5-2.7-5-4.1-7.5v0.4q-0.4-0.7-0.9-1.2c-0.6-0.9-1.5-2.2-1.9-3q0.6 0.6 1.1 1.4c0-0.2 0.1-0.3 0.1-0.5q-0.8-1.3-1.6-2.6c0.2 0.4 0.3 0.8 0.5 1.2-1.2-1.5-2.3-2.8-3.4-4.3-0.3-0.5-0.2-0.3-0.5-0.7-1.9-2.6-4.7-5.5-7-7.7-7.4-7.2-14.8-12.7-24-17.4l-0.3 0.1q-1.6-0.9-3.3-1.7-1.7-0.8-3.5-1.5c-0.5-0.2-1-0.4-1.5-0.5-12.5-5.3-22.7-7.5-36.3-8-11.1-0.1-19.8 1-30.4 4.1 10.3-2.9 19.6-3.8 30.4-3.6 3.6 0.2 7.4 0.7 10.7 1.2-0.4-0.1-0.7-0.1-1-0.1-3.3-0.2-6.4-0.3-9.7-0.2-2.3 0-4.6 0.1-6.8 0.3-0.9 0-18.1 1.8-10.8 1.7 0.3 0-14.6 4-19.8 6q-2.7 1.1-5.4 2.4c-1.6 0.8-3.2 1.6-4.8 2.4-3.5 1.8-6.9 3.7-10.1 5.9-1.3 1.6-2.8 3.3-4.3 4.7-2 1.7-3.9 3.5-5.7 5.4-0.1 0.1-0.2 0.2-0.3 0.2-1.5 1.3-2.8 2.8-4.1 4.3-1.1 1.4-2.1 2.9-3.1 4.3-5.1 7.2-9.1 12.7-13.1 20.7 0 0-0.4 0.7-0.4 0.8-1.4 2.9-2 4.7-2.9 8-1 3.2-1.7 6.4-2.4 9.7 0.1-1.6 0.4-3.2 0.6-4.8-1.1 4.6-1.8 8.9-2.4 13.6-0.4 3.8-0.5 7.2-0.4 10.9 0.1 3.5 0.4 6.7 0.8 10.2q0 0.3 0 0.5 0 0.1 0 0.1c0 0.1 0.3 1.6 0.5 1.9 0.8 3.1 1.9 4.6 2.6 7.5 0.4 3.1 0.4 6.7 0.8 10q0.5 1.4 1 2.8c0.8 2.3 2.5 5.6 3.1 7.8 0 0.1 0 0.3 0 0.4 0.3 1.4 2.7 5.5 3.6 6.9 1.1 4.1 3.2 7.7 4.9 11.5 2.1 4.3 6.1 8.9 9.9 12.7-14.2-13.5-24.4-31.2-28.7-51.1q0-0.4 0-0.7h-0.2c-1.4-6.6-2.1-13.4-2.1-20.5 0-55.2 44.8-100 100-100q0.8 0 1.6 0.1c1.1-0.5 2.4-1 2.9-1q4.1 0.2 7.5 0.5-2-0.4-4.2-0.8c0 0 0 0 0-0.1q0.3 0 0.4-0.1c0.9-0.4 0.4-1.2-0.3-1.9-0.1-0.6 1.7-0.7 2.1-0.7 0.3 0 0.7 0 1 0 1.2 0.1 2.4 0.2 3.6 0.3 1.6 0.2 2.9 0.2 4.5 0.5 1.8 0.4 3.7 0.6 5.4 1q1.6 0.4 3.3 0.6 1.9 0.7 3.9 1.3 2.7 0.9 5.4 2 1.9 0.6 3.8 1.4 0.5 0.2 1 0.4c2 0.8 4 1.8 6 2.8 2.6 1.4 5.2 2.8 7.7 4.2 1.4 0.9 2.8 1.8 4.1 2.7 0.7 0.3 1.4 0.7 2.1 1.1-1.1-1-3-2.6-0.3-0.8 1.5 1 1.1 0.6 2 1.7l-0.1 0.1c1 0.7 3 2 3.7 2.8-0.4-0.2-0.8-0.3-1.2-0.5 1.8 1.5 3.6 3 5.5 4.5 1.2 1 2.3 2.1 3.4 3.1 2.1 2.1 4 4.2 6 6.5 7.3 8.6 12.2 16.6 16.8 27.1 3.8 9 6.2 17.1 7.5 26.8 0.8 4.9 1.1 9.5 1.1 14.4-0.1 0.8-0.1 1.6-0.1 2.4-1.1 22.6-8.3 42.7-22.1 60.7 5.9-6.4 16.4-26.4 16.3-26.1-0.4 1.1-1.9 5.2-1.7 4.7q-0.3 0.7-0.6 1.5c-1.8 4.1-3.9 8-6.3 11.8q0.7-0.9 1.4-1.8c-0.3 0.6-0.7 1.3-1.1 2-1.7 2.8-3.1 4.8-5.1 7.5l0.3-0.1q-0.5 0.6-0.9 1.3c-0.6 0.9-1.7 2.3-2.4 3 0.3-0.5 0.7-1.1 1.1-1.6q-0.2 0-0.5 0.1c-0.2 0.2-1.9 2.2-2 2.3 0-0.1 0.8-0.6 0.9-0.7 0 0.1-0.6 0.9-0.7 0.9-1 1.4-1.8 2.4-3 3.7-0.5 0.4-0.4 0.3-0.7 0.6-10.5 11.1-21.4 19.4-35.3 25.8l-0.2 0.3c-1.2 0.6-2.5 1.1-3.7 1.6-0.3 0.1-5.6 2.2-5.7 2.1-4 1.3-7.8 2.2-12 3-5.3 1-10.1 1.5-15.4 1.7-2.2 0.1-4.5 0.1-6.7 0.1-2.3-0.1-4.5-0.2-6.7-0.4-11.9-1.1-21.1-3.3-32.2-7.8 10.7 4.7 20.5 7 32.2 8.3 2.2 0.2 4.4 0.4 6.7 0.5 2.2 0.1 4.5 0.1 6.7 0q0.8 0 1.9-0.1-1 0.1-1.9 0.2c-0.1 0-2.9 0.2-2.9 0.2-1.3 0.1-2.5 0.2-3.8 0.2-2.3 0-4.5 0-6.8-0.1-2.5-0.1-5.1-0.3-7.6-0.6-1.8-0.3-18.4-4.8-12-2 3.5 1.5-14.7-4.5-19.5-6.8 0 0-0.1-0.1-0.1-0.1-2.9-1.3-5.4-2.8-8.2-4.4-1.2-0.7-2.4-1.4-3.6-2.2-0.2-0.2-0.5-0.3-0.7-0.5-0.3-0.2-0.5-0.4-0.8-0.5q-5.3-3.9-10.1-8.4c-0.4-0.1-0.8-0.4-1.1-0.6-1.7-0.9-3.4-2-4.8-3.3-2.3-2.2-4.4-4.4-6.5-6.7-1.4-1.8-2.8-3.5-4.2-5.3-1.4-1.5-2.7-3-3.9-4.6-3.6-4.7-6.4-10.4-8.7-15.7-1.3-3-2.4-6-3.4-9.1-1-3.5-2-6.7-3-10.2-1.1-3.7-1.9-7.3-2.4-11.1q0.6 2.6 1.4 5.2c-1.2-5.2-1.7-10.2-2.1-15.5q-0.1-2.7-0.1-5.4c-0.1-6.3 0.2-12.1 1.1-18.3q0.1-0.3 0.1-0.5c0 0 0.1-0.1 0.1-0.1 0-0.1 0.2-2.2 0.1-2.3 0.2-3.1 0.4-6.9 0.9-8.9 1.1-3.1 3.5-7.1 5.3-9.9q0.4-1.1 0.8-2.1c0.2-0.4 0.3-0.7 0.5-1 0.7-1.8 3.3-8 4.7-9 0.9-1 3.5-5.9 4.5-7.4 3.4-3.2 6.1-6.5 9.9-9.4 2-1.5 4.1-3.6 6-5.3q2.8-2.4 5.4-4.6c-15 13.2-26.3 30.6-31.9 50.4q-0.2 0.4-0.3 0.7h0.1zm182.5 95.1c-0.1 0-0.1 0.1-0.1 0.1 0 0 0.1 0 0.1-0.1zm-71.2 34.6q0 0 0 0 0 0 0 0zm71.2-34.6q0 0 0 0 0 0 0 0zm-82.5-166.9c5.6 0.8 9.6 1 13 1.1 0.6 0.1 1 0.1 1.1 0.1 0.9 0 1.9 0.1 2.9 0.1 1.3 0.4 2.8 0.6 4.1 0.8q1.7 0.4 3.3 0.8 1.3 0.2 2.7 0.5 1.7 0.5 3.5 1c2.8 0.9 5.5 1.8 8.3 2.9 2.8 1.2 5.6 2.4 8.4 3.8q-8.9-4.7-18.6-7.7c3.3 1 6.7 2.1 10.4 3.4 13 5.3 22.3 11.2 32.6 20.7 10.2 10 16.8 19 22.8 31.8 0.8 1.8 1.5 3.7 2.2 5.5q0.7 1.9 1.5 3.6-0.1 0-0.1-0.1-0.5-1.5-1-3c-0.8-2.1-1.5-4-2.5-6q-0.7-1.5-1.4-3c-0.5-0.8-0.7-1.3-1.1-2.3-0.3-0.8-0.1-0.6-0.6-1.5-0.5-0.8-1-1.7-1.5-2.7-0.2-0.4-0.4-0.8-0.6-1.2-0.2-0.3-0.4-0.5-0.6-0.8-0.3-0.4-0.6-0.8-0.9-1.3-0.4-0.4-0.7-1-0.9-1.6q-0.2-0.3-0.3-0.6c-0.9-1.8-1.7-2.4-2.8-4-0.4-0.5-0.1-0.2-0.1-0.2q0-0.2 0-0.2c0 0.1 0 0.1 0.1 0.1 0-0.2-0.8-1.3-1.4-2.1-1.6-1.9-3.3-3.9-4.9-5.6-1.9-2.1-3.8-4-5.2-5.4-9.8-8.8-18.6-14.4-30.4-19.3-0.9-0.4-1.9-0.8-2.8-1.2 0 0-0.1 0-0.1 0-6.7-2.3-11.3-3.5-15.1-4.2-7.2-1.8-14.7-2.8-22.4-2.9-0.7 0.3-1.3 0.6-1.6 0.7zm98.2 68.5q0 0 0-0.1 0 0.1 0 0.1zm-143.3 101l0.6 0.4q4.4 2.8 9.1 5l0.1 0.1c9.2 4.2 19.4 6.9 30.1 7.6q0.4 0 0.9 0 2.1 0.1 4.3 0.1 2.6 0 5.2-0.1c1.7-0.1 3.4-0.3 5.1-0.5q0.9-0.1 1.8-0.2c1.7-0.3 3.4-0.6 5.1-0.9q5.4-1.2 10.5-3c32.5-11.4 55.8-42.3 55.8-78.7 0-43.2-32.7-78.6-74.7-83q1.4 0 2.8 0.2c1.4 0.1 2.3 0.1 3.7 0.3 1.4 0.3 2.9 0.5 4.3 0.8 0.8 0.2 1.7 0.3 2.6 0.4q1.6 0.5 3.1 1.1 2.2 0.7 4.4 1.6 1.5 0.5 3 1.1c0.3 0.1 0.5 0.2 0.8 0.3q2.4 1 4.8 2.2c2.1 1.1 4.1 2.3 6.2 3.4 1.1 0.7 2.2 1.4 3.3 2.1 0.5 0.3 1.1 0.6 1.7 0.8-0.9-0.9-2.4-2-0.2-0.7 1.3 0.9 0.8 0.5 1.6 1.4l-0.1 0.2c0.6 0.4 2.6 1.6 2.9 2.2-0.3-0.2-0.7-0.3-1-0.4 1.6 1.3 2.9 2.4 4.4 3.6q1.4 1.2 2.8 2.5c1.7 1.6 3.2 3.3 4.8 5.1 5.8 7 9.7 13.4 13.5 21.7 3 7.3 4.9 13.8 6 21.5 0.6 3.9 0.9 7.6 0.8 11.6 0 0.6 0 1.2 0 1.8-1 18.2-6.8 34.2-17.9 48.5 4.7-4.8 13.5-20.9 13.4-20.7-0.3 1-1.5 4.2-1.4 3.8q-0.2 0.6-0.5 1.2c-1.3 3.3-3.1 6.5-4.9 9.5q0.6-0.7 1.1-1.5-0.4 0.9-0.9 1.7c-1.4 2.3-2.5 3.8-4.2 5.9h0.3q-0.3 0.6-0.6 1.1c-0.5 0.7-1.4 1.9-2 2.4 0.3-0.4 0.6-0.9 0.9-1.3h-0.5c-0.2 0.2-1.6 1.8-1.6 1.8 0 0 0.7-0.4 0.7-0.5 0 0.1-0.5 0.7-0.5 0.8-0.8 1.1-1.4 1.9-2.4 2.9-0.4 0.4-0.3 0.2-0.6 0.5-8.5 9-17 15.5-28.3 20.7l-0.1 0.4c-1 0.4-2 0.8-3 1.2-0.2 0.1-4.5 1.8-4.6 1.7-3.2 1-6.3 1.8-9.7 2.4-4.2 0.7-8 1.1-12.3 1.3q-2.7 0.1-5.4 0c-1.8 0-3.6-0.1-5.3-0.3-9.6-0.9-16.9-2.8-25.8-6.4 8.5 3.8 16.4 5.7 25.7 6.9q2.7 0.3 5.4 0.4c1.8 0.1 3.6 0.1 5.4 0.1 0.4 0 0.9 0 1.5-0.1q-0.8 0.1-1.5 0.2c-0.1 0-2.4 0.2-2.4 0.2-1 0-2 0.1-3 0.1-1.8 0.1-3.6 0.1-5.4 0-2.1-0.1-4.1-0.2-6.2-0.5-1.4-0.3-14.7-3.9-9.7-1.6 3.3 1.6-12.2-3.8-15.6-5.4 0 0-0.1 0-0.2 0-2.2-1.2-4.3-2.3-6.5-3.6-1-0.6-2-1.2-2.9-1.8q-0.3-0.2-0.6-0.4-0.3-0.2-0.6-0.5-4.3-3.1-8.1-6.8c-0.3-0.1-0.6-0.3-0.9-0.4-1.4-0.7-2.8-1.5-4-2.6-1.8-1.7-3.5-3.5-5.2-5.4-1.1-1.4-2.3-2.9-3.4-4.2-1.1-1.2-2.2-2.5-3.2-3.7-2.9-3.7-5.2-8.4-7-12.7-1-2.4-1.9-4.9-2.6-7.4-0.8-2.9-1.6-5.3-2.4-8.2-0.9-2.9-1.5-5.9-2-9q0.5 2.2 1.2 4.2c-0.9-4.1-1.4-8.2-1.7-12.4-0.1-1.5-0.1-2.9-0.1-4.3-0.1-5.1 0.1-9.8 0.8-14.8q0.1-0.3 0.1-0.4 0.1-0.1 0.1-0.1c0-0.1 0.1-1.7 0-1.8 0.1-2.6 0.1-5.8 0.5-7.3 1-2.4 3.1-5.7 4.6-7.9q0.4-0.8 0.7-1.7c0.1-0.2 0.2-0.5 0.3-0.8 0.7-1.4 2.8-6.5 3.9-7.2 0.6-0.6 2.9-4.8 3.6-6 2.9-2.4 5.1-5 8.3-7.2 1.6-1.1 3.4-2.8 4.9-4.1 1.6-1.3 3.1-2.6 4.6-3.7-12.2 10.5-21.2 24.4-25.6 40.3q-0.2 0.2-0.3 0.5h0.1c-1.9 7.1-3 14.5-3 22.2 0 25.2 11.2 47.8 29 63.2 2.9 2.5 6.1 4.9 9.4 7zm111.3-16q0 0 0 0 0 0 0 0zm26.4-100.5c-1.4-3.7-4.9-8.8-8.8-13.5 3.6 5.4 8.7 13.5 8.8 13.5zm-59.4 144.7c3.6-1.2 7.2-2.9 10.9-4.7q-5.1 2.5-10.9 4.7zm2.4-0.1c0 0.1-0.1 0.1-0.1 0.1 0 0 0.1 0 0.1-0.1zm-2 0.7c0 0-0.1 0-0.1 0.1 0-0.1 0.1-0.1 0.1-0.1zm-0.3 0.1q-0.1 0.1-0.2 0.1 0.1 0 0.2-0.1zm-1.6 0.6c-0.1 0-0.2 0-0.2 0 0 0 0.1 0 0.2 0zm-5.9 1.6q0 0 0.1 0zm-0.1 0h0.1q0 0-0.1 0zm-0.5 0.1q-0.1 0-0.1 0.1 0-0.1 0.1-0.1zm-3.6 0.9l0.1-0.1h0.1c-0.1 0-0.1 0-0.2 0.1zm-42.8 0q7.2 1.5 14.6 2-7.4-0.5-14.6-2zm-3.7-0.8q1.9 0.5 3.7 0.8-1.8-0.3-3.7-0.8zm0 0q-0.2 0-0.4-0.1 0.2 0.1 0.4 0.1zm-0.4-0.1q-0.1 0-0.1 0h0.1zm-2.5-0.6c0.2 0 0.3 0.1 0.5 0.1-0.2 0-0.3-0.1-0.5-0.1zm-1.8-0.5c-0.2-0.1-0.3-0.1-0.5-0.2 0.2 0.1 0.3 0.1 0.5 0.2zm-2.8-0.9q0.2 0.1 0.5 0.1-0.3 0-0.5-0.1zm-1.8-0.6c0.2 0.1 0.4 0.1 0.6 0.2-0.2-0.1-0.4-0.1-0.6-0.2zm-6.1-2.3c0.1 0 0.3 0.1 0.4 0.2-0.1-0.1-0.3-0.2-0.4-0.2zm-1.2-0.6q-0.3-0.1-0.5-0.2 0.2 0.1 0.5 0.2zm125.3-155.8c-1.3-1.9-2.4-3.6-3-4.3 0.8 1.2-0.7-0.6-0.8-0.7-0.2-0.2-4-4.6-1.7-1.8q1.8 2.2 3.6 4.4c0.1 0.2 0.4 0.5 0.6 0.9q0.7 0.7 1.3 1.5zm-56.6-38.2c0.5-0.1-1.2-0.6-4.8-1.1-2.5-0.4-6.1-0.9-10.4-1.3 9.7 2 14.5 2.6 15.2 2.4zm-104.1 114.1h-0.2c-1.1-5.1-1.6-10.6-1.6-16.1 0-43.4 35.2-78.7 78.7-78.7q0.4 0 0.9 0c-0.4 0.2-0.7 0.5-0.9 0.6 4.5 0.8 7.6 0.8 10.6 0.9q0.2 0 0.4 0 1.2 0.1 2.5 0.1c1 0.3 2.1 0.4 3.1 0.6 0.9 0.2 1.8 0.5 2.6 0.7 0.7 0.1 1.4 0.2 2.1 0.3 1 0.3 1.9 0.5 2.8 0.7 2.2 0.7 4.2 1.4 6.2 2.2 28.4 11.9 48.4 39.9 48.4 72.6 0 37.9-26.8 69.6-62.5 77q-5.5 1.2-11.3 1.6-0.8 0-1.7 0.1 0.9-0.2 1.7-0.2 0.5-0.1 0.9-0.1c1.2-0.2 2.2-0.4 3.4-0.6 1.4-0.1 2.7-0.4 4-0.7 0.8-0.1 1.6-0.3 2.4-0.7q0.2 0 0.4 0 1.4-0.3 2.8-0.5c1.4-0.4 2.8-0.7 4.2-1.1q1.9-0.7 3.7-1.4 2.3-0.9 4.5-1.9c2-0.8 4.1-1.8 5.9-3 1-0.5 2-1.2 3.1-1.8q0.6-0.5 1.3-1.1c-1.2 0.4-2.6 1.2-0.7-0.1 1.2-0.9 0.6-0.6 1.7-0.9l0.1 0.1c0.5-0.4 2.2-1.8 2.7-1.9-0.2 0.2-0.4 0.5-0.6 0.8 2.1-1.4 2.3-1.7 4.1-3.3 2.5-2.1 4.8-4.3 7.1-6.7q2-2.2 3.9-4.5c8.1-10.2 13.3-20.8 15.8-33.6 0.7-4.2 1.1-7.9 1.5-12.1 0.1-1.1 0.1-2.3 0.2-3.4 0.1-11.1-1.5-19.9-5.5-30.3-1.8-4.4-3.8-8.6-6.4-12.6 2.4 4.6 4 7.8 5.8 12.8 0.1 0.3 3.2 11.3 2.1 8.5-0.3-0.8-1.4-3.7-1.2-3.3-0.1-0.4-0.3-0.7-0.4-1.1q-0.7-1.8-1.5-3.7c-0.7-1.7-1.5-3.5-2.3-5.2q0.2 0.9 0.5 1.7c-0.2-0.5-0.5-1-0.8-1.5-1-2-2.1-3.9-3.1-5.9l-0.1 0.3c-0.2-0.3-0.4-0.6-0.7-0.9-0.4-0.6-1.2-1.7-1.5-2.4q0.5 0.6 1 1.1l0.1-0.3q-0.6-1.1-1.2-2.1c0.1 0.3 0.2 0.6 0.2 0.9-0.9-1.2-1.6-2-2.6-3.3-0.3-0.4-0.1-0.3-0.4-0.6-1.4-1.9-3.7-4.3-5.4-6-5.8-5.6-11.6-9.9-18.8-13.6l-0.3 0.2q-1.3-0.7-2.6-1.3-1.3-0.7-2.7-1.2-0.6-0.2-1.1-0.4c-9.8-4.2-17.8-6-28.4-6.4-8.7-0.2-15.5 0.7-23.9 3 8.2-2.2 15.4-2.8 23.9-2.5 2.5 0.1 5.5 0.6 8.2 1-0.2 0-0.4 0-0.6 0-2.6-0.2-5.1-0.2-7.6-0.2-1.8 0.1-3.5 0.2-5.4 0.3-0.6 0-14.1 1.2-8.3 1.4 0.6 0-11.5 3.2-15.4 4.7-1.4 0.6-2.9 1.2-4.2 1.8q-1.9 0.9-3.8 1.9c-2.7 1.4-5.4 2.8-8 4.5-0.9 1.2-2 2.7-3.2 3.8-1.5 1.3-3 2.7-4.4 4.2q-0.1 0.1-0.2 0.2-1.8 1.5-3.2 3.4c-0.8 1-1.6 2.2-2.3 3.4-3.9 5.6-7.1 9.7-10.3 16 0 0-0.3 0.5-0.4 0.5-1.2 2.3-1.6 3.7-2.3 6.3-0.7 2.5-1.3 5-1.8 7.6q0.1-1.9 0.4-3.7c-0.8 3.5-1.4 6.9-1.9 10.5-0.2 2.9-0.3 5.6-0.2 8.5 0.1 2.7 0.3 5.2 0.6 7.9q0 0.3 0 0.4c0 0.1 0 0.1 0 0.1 0 0.1 0.3 1.2 0.4 1.5 0.8 2.5 1.9 3.7 2.4 5.7 0.2 2.4 0.1 5.4 0.2 7.9q0.3 1.1 0.7 2.2c0.7 1.7 2.2 4.5 2.5 6.1 0 0.1 0 0.2 0 0.3 0.1 1.1 2.1 4.3 2.8 5.4 0.6 3.3 2.2 6.2 3.4 9.3 1.4 3.3 4.5 7 7.5 10.1-11.2-10.7-19.2-24.6-22.6-40.2 0.1-0.2 0.1-0.4 0.1-0.6zm118.3 80q-0.1 0-0.2 0.1 0.1-0.1 0.2-0.1zm-0.3 0.1c-0.1 0-0.1 0.1-0.2 0.1 0.1 0 0.1-0.1 0.2-0.1zm-0.3 0.2c-0.1 0-0.1 0-0.2 0 0.1 0 0.1 0 0.2 0zm-0.4 0.1c0 0-0.1 0-0.1 0.1 0-0.1 0.1-0.1 0.1-0.1zm-0.3 0.1c0 0.1-0.1 0.1-0.1 0.1 0 0 0.1 0 0.1-0.1zm-0.3 0.2c-0.1 0-0.1 0-0.2 0 0.1 0 0.1 0 0.2 0zm-0.3 0.1q-0.1 0-0.2 0.1 0.1-0.1 0.2-0.1zm-0.4 0.1c0 0.1-0.1 0.1-0.1 0.1 0 0 0.1 0 0.1-0.1zm-0.3 0.2c0 0-0.1 0-0.1 0 0 0 0.1 0 0.1 0zm-0.3 0.1c-0.1 0-0.1 0-0.2 0 0.1 0 0.1 0 0.2 0zm-0.3 0.1q-0.1 0-0.2 0.1 0.1-0.1 0.2-0.1zm-0.3 0.1c-0.1 0.1-0.1 0.1-0.2 0.1 0.1 0 0.1 0 0.2-0.1zm-0.4 0.2c0 0-0.1 0-0.1 0 0 0 0.1 0 0.1 0zm-0.3 0.1c0 0-0.1 0-0.1 0 0 0 0.1 0 0.1 0zm-0.3 0.1c-0.1 0-0.1 0-0.2 0 0.1 0 0.1 0 0.2 0zm-0.3 0.1c-0.1 0-0.1 0-0.2 0.1 0.1-0.1 0.1-0.1 0.2-0.1zm-0.3 0.1q-0.1 0.1-0.2 0.1 0.1 0 0.2-0.1zm-0.4 0.2c0 0-0.1 0-0.1 0 0 0 0.1 0 0.1 0zm-0.7 0.2c0 0-0.1 0-0.1 0 0 0 0.1 0 0.1 0zm-0.3 0.1c0 0-0.1 0-0.1 0.1 0-0.1 0.1-0.1 0.1-0.1zm-0.3 0.1c-0.1 0-0.1 0.1-0.2 0.1 0.1 0 0.1-0.1 0.2-0.1zm-0.6 0.3c-0.1 0-0.2 0-0.2 0 0 0 0.1 0 0.2 0zm-1 0.3c-0.1 0-0.1 0-0.2 0 0.1 0 0.1 0 0.2 0zm-0.4 0.1c0 0-0.1 0-0.1 0.1 0-0.1 0.1-0.1 0.1-0.1zm-0.3 0.1c-0.1 0-0.1 0-0.2 0.1 0.1-0.1 0.1-0.1 0.2-0.1zm-0.3 0.1c-0.1 0-0.2 0.1-0.2 0.1 0 0 0.1-0.1 0.2-0.1zm-0.7 0.2q-0.1 0-0.2 0.1 0.1-0.1 0.2-0.1zm-0.3 0.1q-0.1 0.1-0.2 0.1 0.1 0 0.2-0.1zm-0.3 0.1c-0.1 0.1-0.2 0.1-0.2 0.1 0 0 0.1 0 0.2-0.1zm-0.4 0.1c0 0.1-0.1 0.1-0.2 0.1 0.1 0 0.2 0 0.2-0.1zm-1 0.3c-0.1 0.1-0.1 0.1-0.2 0.1 0.1 0 0.1 0 0.2-0.1zm-0.7 0.2c0 0.1-0.1 0.1-0.2 0.1 0.1 0 0.2 0 0.2-0.1zm-0.3 0.1c-0.1 0.1-0.1 0.1-0.2 0.1 0.1 0 0.1 0 0.2-0.1zm-0.7 0.2c-0.1 0-0.1 0.1-0.2 0.1 0.1 0 0.1-0.1 0.2-0.1zm-0.4 0.1q0 0-0.1 0.1 0.1-0.1 0.1-0.1zm-1 0.3c0 0-0.1 0-0.1 0 0 0 0.1 0 0.1 0zm-0.6 0.2c-0.1 0-0.1 0-0.2 0 0.1 0 0.1 0 0.2 0zm-1.4 0.3c-0.1 0-0.1 0-0.2 0 0.1 0 0.1 0 0.2 0zm-0.4 0c0 0.1-0.1 0.1-0.1 0.1 0 0 0.1 0 0.1-0.1zm-0.3 0.1c-0.1 0-0.1 0.1-0.2 0.1 0.1 0 0.1-0.1 0.2-0.1zm-0.3 0.1q-0.1 0.1-0.2 0 0.1 0.1 0.2 0zm-0.4 0.1c0 0-0.1 0-0.1 0 0 0 0.1 0 0.1 0zm-0.3 0.1c-0.1 0-0.1 0-0.2 0 0.1 0 0.1 0 0.2 0zm-0.4 0q-0.1 0.1-0.1 0.1 0 0 0.1-0.1zm-47.6-0.7q-0.3-0.1-0.5-0.2 0.2 0.1 0.5 0.2zm-0.6-0.2c-0.2 0-0.3-0.1-0.5-0.1 0.2 0 0.3 0.1 0.5 0.1zm-0.6-0.1q-0.2-0.1-0.5-0.2 0.3 0.1 0.5 0.2zm-1.2-0.3c-0.2-0.1-0.3-0.1-0.5-0.2 0.2 0.1 0.3 0.1 0.5 0.2zm-0.6-0.2c-0.1-0.1-0.3-0.1-0.5-0.2 0.2 0.1 0.4 0.1 0.5 0.2zm-0.5-0.2c-0.2 0-0.4-0.1-0.6-0.1 0.2 0 0.4 0.1 0.6 0.1zm-1.2-0.3c-0.1-0.1-0.3-0.1-0.5-0.2 0.2 0.1 0.4 0.1 0.5 0.2zm-0.6-0.2q-0.2-0.1-0.5-0.2 0.3 0.1 0.5 0.2zm-0.5-0.2c-0.2 0-0.4-0.1-0.6-0.1 0.2 0 0.4 0.1 0.6 0.1zm-1.2-0.3q-0.3-0.1-0.5-0.2 0.2 0.1 0.5 0.2zm-0.6-0.2q-0.2-0.1-0.5-0.2 0.3 0.1 0.5 0.2zm-1.1-0.4q-0.3-0.1-0.5-0.2 0.2 0.1 0.5 0.2zm-0.6-0.2q-0.3-0.1-0.5-0.2 0.2 0.1 0.5 0.2zm-0.6-0.2q-0.2-0.1-0.5-0.2 0.3 0.1 0.5 0.2zm-0.5-0.2c-0.2-0.1-0.4-0.2-0.6-0.2 0.2 0 0.4 0.1 0.6 0.2zm-0.6-0.2c-0.3-0.2-0.7-0.3-1.1-0.4 0.4 0.1 0.8 0.2 1.1 0.4zm-1.1-0.4q-0.3-0.1-0.5-0.2 0.2 0.1 0.5 0.2zm-0.6-0.3q-0.2-0.1-0.5-0.2 0.3 0.1 0.5 0.2zm-0.5-0.2q-0.3-0.1-0.5-0.2 0.2 0.1 0.5 0.2zm-0.6-0.2q-0.2-0.1-0.5-0.2 0.3 0.1 0.5 0.2zm-1.1-0.5q-0.2-0.1-0.5-0.2 0.3 0.1 0.5 0.2zm-0.5-0.2q-0.3-0.1-0.5-0.2 0.2 0.1 0.5 0.2zm-1.2-0.5q-0.2-0.1-0.5-0.2 0.3 0.1 0.5 0.2zm-0.5-0.2q-0.3-0.1-0.5-0.3 0.2 0.2 0.5 0.3zm-0.6-0.3q-0.2-0.1-0.5-0.2 0.3 0.1 0.5 0.2zm-0.5-0.2c-0.2-0.1-0.3-0.2-0.5-0.3 0.2 0.1 0.3 0.2 0.5 0.3zm85.5 0.8q-0.2 0-0.2 0.1 0-0.1 0.2-0.1z"/></g><path fill-rule="evenodd" class="b" d="m69.5 57.9q3.7 0 5.4 2.1 1.7 2 1.7 5.6v3.8q0 3.8-1.8 5.7-1.8 2-5.6 2h-3.1v12.4h-3.5v-31.6zm-0.3 16q2 0 2.9-1 1-0.9 1-3.2v-4.2q0-2.2-0.9-3.3-0.8-1.1-2.7-1.1h-3.4v12.8zm10-8.4q0-3.6 1.7-5.8 1.8-2.1 5.5-2.1 3.6 0 5.5 2.1 1.8 2.2 1.8 5.8v16.4q0 3.6-1.8 5.8-1.9 2.1-5.5 2.1-3.7 0-5.5-2.1-1.7-2.2-1.7-5.8zm3.4 16.5q0 2.2 1 3.4 0.9 1.2 2.8 1.2 1.9 0 2.8-1.2 0.9-1.2 0.9-3.4v-16.7q0-2.1-0.9-3.3-0.9-1.2-2.8-1.2-1.9 0-2.8 1.2-1 1.2-1 3.3zm21.5-24.1q3.7 0 5.3 1.8 1.7 1.9 1.7 5.4v2.6q0 2.6-1 4.2-0.9 1.6-2.9 2.3 2.1 0.6 3 2.3 0.9 1.7 0.9 4.2v5q0 1 0.1 2 0.1 1 0.6 1.8h-3.6q-0.3-0.7-0.5-1.5-0.1-0.8-0.1-2.4v-4.9q0-2.7-1.2-3.7-1.2-1-3.4-1h-2.5v13.5h-3.5v-31.6zm-0.9 14.9q2.1 0 3.3-0.9 1.2-0.9 1.2-3.5v-3q0-2.2-0.9-3.3-0.8-1-2.8-1h-3.4v11.7zm16.2 16.7v-28.4h-5.8v-3.2h15.2v3.2h-5.8v28.4zm15.3-6.4l-1.2 6.4h-3.3l6.1-31.6h5.1l6 31.6h-3.5l-1.2-6.4zm0.4-3h7.1l-3.6-18.3zm15.1 9.4v-31.6h3.5v28.4h9v3.2z"/><path fill-rule="evenodd" class="b" d="m60.1 102q3.6 0 5.4 2.2 1.7 2.2 1.7 5.8v2.8h-3.3v-3q0-2.2-0.9-3.4-0.9-1.2-2.8-1.2-1.9 0-2.8 1.2-0.9 1.2-0.9 3.4v16.7q0 2.2 0.9 3.4 0.9 1.2 2.8 1.2 1.9 0 2.8-1.2 0.9-1.2 0.9-3.4v-4.1h3.3v3.9q0 3.6-1.7 5.8-1.8 2.2-5.4 2.2-3.6 0-5.4-2.2-1.7-2.2-1.7-5.8v-16.3q0-1.8 0.4-3.3 0.5-1.5 1.3-2.5 0.9-1 2.2-1.6 1.4-0.6 3.2-0.6zm13.8 17.7v14.3h-3.5v-31.6h3.5v14.2h7.8v-14.2h3.5v31.6h-3.5v-14.3zm26.2-3.3v3.1h-7.8v11.3h9.5v3.2h-13v-31.6h13v3.2h-9.5v10.8zm11.9-14.4q3.6 0 5.4 2.2 1.7 2.2 1.7 5.8v2.8h-3.3v-3q0-2.2-0.9-3.4-0.9-1.2-2.8-1.2-1.9 0-2.8 1.2-0.9 1.2-0.9 3.4v16.7q0 2.2 0.9 3.4 0.9 1.2 2.8 1.2 1.9 0 2.8-1.2 0.9-1.2 0.9-3.4v-4.1h3.3v3.9q0 3.6-1.7 5.8-1.8 2.2-5.4 2.2-3.6 0-5.4-2.2-1.7-2.2-1.7-5.8v-16.3q0-1.8 0.4-3.3 0.4-1.5 1.3-2.5 0.9-1 2.2-1.6 1.4-0.6 3.2-0.6zm15.7 18.2l-1.9 3.2v10.6h-3.5v-31.6h3.5v15.2l8.4-15.2h3.6l-8 14.4 8.3 17.2h-3.6zm24.3-3.9v3.1h-7.7v11.3h9.5v3.2h-13v-31.6h13v3.2h-9.5v10.8zm12-14q3.8 0 5.4 1.8 1.7 1.9 1.7 5.4v2.6q0 2.6-1 4.2-0.9 1.7-2.9 2.3 2.1 0.6 3 2.3 0.9 1.7 0.9 4.3v4.9q0 1 0.1 2 0.1 1 0.6 1.8h-3.6q-0.3-0.7-0.5-1.5-0.1-0.8-0.1-2.3v-5q0-2.7-1.2-3.7-1.2-1-3.4-1h-2.5v13.5h-3.5v-31.6zm-0.9 14.9q2.1 0 3.3-0.9 1.2-0.9 1.2-3.5v-3q0-2.1-0.9-3.2-0.8-1.1-2.8-1.1h-3.4v11.7z"/><path fill-rule="evenodd" class="c" d="m69.5 57.9q3.7 0 5.4 2.1 1.7 2 1.7 5.6v3.8q0 3.8-1.8 5.7-1.8 2-5.6 2h-3.1v12.4h-3.5v-31.6zm-0.3 16q2 0 2.9-1 1-0.9 1-3.2v-4.2q0-2.2-0.9-3.3-0.8-1.1-2.7-1.1h-3.4v12.8z"/><path fill-rule="evenodd" class="c" d="m79.2 65.5q0-3.6 1.8-5.8 1.8-2.1 5.4-2.1 3.7 0 5.5 2.1 1.8 2.2 1.8 5.8v16.4q0 3.6-1.8 5.8-1.8 2.1-5.5 2.1-3.6 0-5.4-2.1-1.8-2.2-1.8-5.8zm3.5 16.5q0 2.2 0.9 3.4 0.9 1.2 2.8 1.2 2 0 2.9-1.2 0.9-1.2 0.9-3.4v-16.7q0-2.2-0.9-3.4-0.9-1.2-2.9-1.2-1.9 0-2.8 1.2-0.9 1.2-0.9 3.4z"/><path fill-rule="evenodd" class="c" d="m104.1 57.9q3.7 0 5.4 1.9 1.6 1.8 1.6 5.3v2.6q0 2.6-0.9 4.3-1 1.6-3 2.2 2.2 0.6 3.1 2.3 0.9 1.7 0.9 4.3v4.9q0 1.1 0.1 2 0.1 1 0.5 1.8h-3.6q-0.3-0.6-0.4-1.4-0.2-0.8-0.1-2.4v-5q-0.1-2.6-1.3-3.7-1.1-1-3.4-1h-2.4v13.5h-3.6v-31.6zm-0.9 14.9q2.2 0 3.3-0.9 1.2-0.8 1.2-3.4v-3q0-2.2-0.8-3.3-0.9-1.1-2.9-1.1h-3.4v11.7z"/><path class="c" d="m119.4 89.5v-28.4h-5.8v-3.2h15.2v3.2h-5.8v28.4z"/><path fill-rule="evenodd" class="c" d="m134.8 83.2l-1.2 6.3h-3.3l6.1-31.6h5.1l6 31.6h-3.5l-1.2-6.3zm0.4-3.1h7.1l-3.6-18.2z"/><path class="c" d="m150.3 89.5v-31.6h3.5v28.4h9v3.2z"/><path class="c" d="m60.1 102q3.6 0 5.4 2.2 1.7 2.2 1.7 5.8v2.8h-3.3v-3q0-2.2-0.9-3.4-0.9-1.2-2.8-1.2-1.9 0-2.8 1.2-0.9 1.2-0.9 3.4v16.7q0 2.2 0.9 3.4 0.9 1.2 2.8 1.2 1.9 0 2.8-1.2 0.9-1.2 0.9-3.4v-4.1h3.3v3.9q0 3.7-1.7 5.8-1.8 2.2-5.4 2.2-3.6 0-5.4-2.2-1.7-2.1-1.7-5.8v-16.3q0-1.8 0.4-3.3 0.4-1.5 1.3-2.5 0.9-1 2.2-1.6 1.4-0.6 3.2-0.6z"/><path class="c" d="m73.9 119.7v14.3h-3.5v-31.7h3.5v14.3h7.8v-14.3h3.5v31.7h-3.5v-14.3z"/><path class="c" d="m100.1 116.4v3.1h-7.7v11.3h9.5v3.2h-13v-31.7h13v3.3h-9.5v10.8z"/><path class="c" d="m111.9 102q3.7 0 5.4 2.2 1.8 2.2 1.8 5.8v2.8h-3.4v-3q0-2.2-0.9-3.4-0.8-1.2-2.8-1.2-1.9 0-2.8 1.2-0.9 1.2-0.9 3.4v16.7q0 2.2 0.9 3.4 0.9 1.2 2.8 1.2 2 0 2.8-1.2 0.9-1.2 0.9-3.4v-4.1h3.4v3.9q0 3.7-1.8 5.8-1.7 2.2-5.4 2.2-3.6 0-5.3-2.2-1.8-2.1-1.8-5.8v-16.3q0-1.8 0.5-3.3 0.4-1.5 1.3-2.5 0.9-1 2.2-1.6 1.3-0.6 3.1-0.6z"/><path class="c" d="m127.7 120.2l-1.9 3.2v10.6h-3.5v-31.7h3.5v15.3l8.4-15.3h3.6l-8 14.5 8.2 17.2h-3.6z"/><path class="c" d="m152 116.4v3.1h-7.7v11.3h9.5v3.2h-13v-31.7h13v3.3h-9.5v10.8z"/><path fill-rule="evenodd" class="c" d="m164.1 102.3q3.7 0 5.3 1.9 1.7 1.9 1.7 5.4v2.6q0 2.6-0.9 4.2-1 1.6-3 2.3 2.1 0.6 3 2.3 0.9 1.7 1 4.3v4.9q-0.1 1 0 2 0.1 1 0.6 1.8h-3.6q-0.3-0.7-0.5-1.5-0.1-0.8-0.1-2.4v-4.9q0-2.7-1.2-3.7-1.2-1-3.4-1h-2.5v13.5h-3.5v-31.7zm-0.9 15q2.1 0 3.3-0.9 1.2-0.9 1.2-3.5v-3q0-2.2-0.9-3.3-0.8-1-2.8-1h-3.4v11.7z"/></svg>