<svg version="1.2" xmlns="http://www.w3.org/2000/svg" viewBox="0 0 118 120" width="118" height="120"><defs><clipPath clipPathUnits="userSpaceOnUse" id="cp1"><path d="m0 0h118v121h-118z"/></clipPath><clipPath clipPathUnits="userSpaceOnUse" id="cp2"><path d="m-19.46 82.1l106.06-106.06 58.86 58.86-106.06 106.06z"/></clipPath><clipPath clipPathUnits="userSpaceOnUse" id="cp3"><path d="m-19.46 82.1l106.06-106.06 58.86 58.86-106.06 106.06z"/></clipPath></defs><style>.a{fill:#0097b2}</style><g clip-path="url(#cp1)"><g clip-path="url(#cp2)"><g clip-path="url(#cp3)"><path fill-rule="evenodd" class="a" d="m10 110.7c-17.5-16.6-10.8-47.2 14.9-54.2 8.4-2.3 17.6-2.3 27.5-2.2 0.4 0 0.5-0.2 0.5-0.6-0.1-15.4-0.7-38.3 19.4-49.3 8.5-4.7 17.3-5 26.1-0.9 29.3 13.7 24.6 53.8-6.4 61.3-7.8 1.9-16.1 2-26.1 1.9-0.5 0-0.6 0.1-0.6 0.6 0.1 11.3 0.2 23.5-4.7 33.6-10 20.4-33.6 25.9-50.6 9.8zm9.2-9.8c10.3 9.3 22.5 6.3 28.8-3.5 5.5-8.5 5.2-20.5 5.1-30.6 0-0.3-0.2-0.3-0.4-0.3-8.4 0.3-17.6-0.4-25.4 2.4-15.3 5.4-17.8 22.4-8.1 32zm79.9-80.8c-9.8-9.2-22.5-6.9-29.2 3.8-5.2 8.4-4.9 20.4-4.8 30.2 0.1 0.3 0.2 0.3 0.5 0.3 11.7-0.4 27.7 1.4 35.7-9.9 5.4-7.5 4.4-17.8-2.2-24.4z"/></g></g></g></svg>