<svg version="1.2" xmlns="http://www.w3.org/2000/svg" viewBox="0 0 209 127" width="209" height="127"><defs><clipPath clipPathUnits="userSpaceOnUse" id="cp1"><path d="m46-1h118v121h-118z"/></clipPath><clipPath clipPathUnits="userSpaceOnUse" id="cp2"><path d="m26.54 81.1l106.06-106.06 58.86 58.86-106.06 106.06z"/></clipPath><clipPath clipPathUnits="userSpaceOnUse" id="cp3"><path d="m26.54 81.1l106.06-106.06 58.86 58.86-106.06 106.06z"/></clipPath><clipPath clipPathUnits="userSpaceOnUse" id="cp4"><path d="m92.63 9.39h25.51v14.35h-25.51z"/></clipPath><clipPath clipPathUnits="userSpaceOnUse" id="cp5"><path d="m99.81 9.39h11.15c3.97 0 7.18 3.22 7.18 7.18 0 3.96-3.21 7.17-7.18 7.17h-11.15c-3.97 0-7.18-3.21-7.18-7.17 0-3.96 3.21-7.18 7.18-7.18z"/></clipPath><clipPath clipPathUnits="userSpaceOnUse" id="cp6"><path d="m100 5h23v21h-23z"/></clipPath><clipPath clipPathUnits="userSpaceOnUse" id="cp7"><path d="m105.32 3.04l20.06 15.78-7.3 9.27-20.05-15.78z"/></clipPath><clipPath clipPathUnits="userSpaceOnUse" id="cp8"><path d="m109.96 6.69l10.77 8.48c1.23 0.97 2.03 2.38 2.21 3.94 0.19 1.55-0.25 3.11-1.22 4.34-0.97 1.23-2.38 2.02-3.93 2.21-1.56 0.18-3.12-0.26-4.35-1.22l-10.78-8.49c-1.22-0.96-2.02-2.38-2.2-3.93-0.19-1.56 0.25-3.12 1.22-4.34 0.96-1.23 2.38-2.03 3.93-2.21 1.56-0.19 3.12 0.25 4.35 1.22z"/></clipPath><clipPath clipPathUnits="userSpaceOnUse" id="cp9"><path d="m103.58 9.27h12.6v12.59h-12.6z"/></clipPath><clipPath clipPathUnits="userSpaceOnUse" id="cp10"><path d="m109.88 9.27c-3.48 0-6.3 2.81-6.3 6.29 0 3.48 2.82 6.3 6.3 6.3 3.48 0 6.3-2.82 6.3-6.3 0-3.48-2.82-6.29-6.3-6.29z"/></clipPath></defs><style>.a{fill:#0097b2}.b{fill:#38b6ff}</style><g clip-path="url(#cp1)"><g clip-path="url(#cp2)"><g clip-path="url(#cp3)"><path fill-rule="evenodd" class="a" d="m56 109.7c-17.5-16.6-10.8-47.2 14.9-54.2 8.4-2.3 17.6-2.3 27.5-2.2 0.4 0 0.5-0.2 0.5-0.6-0.1-15.4-0.7-38.3 19.4-49.3 8.5-4.7 17.3-5 26.1-0.9 29.3 13.7 24.6 53.8-6.4 61.3-7.8 1.9-16.1 2-26.1 1.9-0.5 0-0.6 0.1-0.6 0.6 0.1 11.3 0.2 23.5-4.7 33.6-10 20.4-33.6 25.9-50.6 9.8zm9.2-9.8c10.3 9.3 22.5 6.3 28.8-3.5 5.5-8.5 5.2-20.5 5.1-30.6 0-0.3-0.2-0.3-0.4-0.3-8.4 0.3-17.6-0.4-25.4 2.4-15.3 5.4-17.8 22.4-8.1 32zm79.9-80.8c-9.8-9.2-22.5-6.9-29.2 3.8-5.2 8.4-4.9 20.4-4.8 30.2 0.1 0.3 0.2 0.3 0.5 0.3 11.7-0.4 27.7 1.4 35.7-9.9 5.4-7.5 4.4-17.8-2.2-24.4z"/></g></g></g><g clip-path="url(#cp4)"><g clip-path="url(#cp5)"><path class="b" d="m92.6 9.4h25.5v14.3h-25.5z"/></g></g><g clip-path="url(#cp6)"><g clip-path="url(#cp7)"><g clip-path="url(#cp8)"><path class="b" d="m105.3 3l20.1 15.8-7.3 9.3-20.1-15.8z"/></g></g></g><g clip-path="url(#cp9)"><g clip-path="url(#cp10)"><path class="a" d="m103.6 9.3h12.6v12.6h-12.6z"/></g></g><path fill-rule="evenodd" class="a" d="m8.6 51.3q-0.1-0.3-0.2-0.5-0.1-0.2-0.1-0.5-0.1-0.3-0.1-0.8 0-0.6 0-1.3v-4q0-1.7-0.6-2.4-0.6-0.8-2-0.8h-1.4v10.3h-3.9v-25.2h6q3.1 0 4.4 1.4 1.4 1.5 1.4 4.4v2q0 3.9-2.6 5.1 1.5 0.6 2.1 2 0.5 1.4 0.5 3.3v3.9q0 1 0.1 1.7 0.1 0.7 0.4 1.4zm-4.3-21.6v7.7h1.5q1.1 0 1.8-0.5 0.6-0.6 0.6-2.1v-2.5q0-1.4-0.5-2-0.5-0.6-1.5-0.6z"/><path fill-rule="evenodd" class="a" d="m27.6 51.3h-4l-0.7-4.6h-4.9l-0.7 4.6h-3.6l4-25.2h5.8zm-9-8h3.8l-1.9-12.7z"/><path class="a" d="m40.9 41.9v3.3q0 3.1-1.5 4.7-1.5 1.7-4.4 1.7-2.9 0-4.4-1.7-1.5-1.6-1.5-4.7v-13.1q0-3 1.5-4.7 1.5-1.6 4.4-1.6 2.9 0 4.4 1.6 1.5 1.7 1.5 4.7v2.5h-3.8v-2.7q0-1.4-0.5-1.9-0.6-0.6-1.5-0.6-1 0-1.5 0.6-0.6 0.5-0.6 1.9v13.6q0 1.4 0.6 1.9 0.5 0.6 1.5 0.5 0.9 0.1 1.5-0.5 0.5-0.5 0.5-1.9v-3.6z"/><path class="a" d="m47.3 36.7h5.4v3.6h-5.4v7.4h6.8v3.6h-10.8v-25.2h10.8v3.6h-6.8z"/><path class="a" d="m68 41.9v3.3q0 3.1-1.5 4.7-1.5 1.7-4.4 1.7-2.9 0-4.4-1.7-1.5-1.6-1.5-4.7v-13.1q0-3 1.5-4.7 1.5-1.6 4.4-1.6 2.9 0 4.4 1.6 1.5 1.7 1.5 4.7v2.5h-3.7v-2.7q0-1.4-0.6-1.9-0.5-0.6-1.5-0.6-0.9 0-1.5 0.6-0.5 0.5-0.5 1.9v13.6q0 1.4 0.5 1.9 0.6 0.6 1.5 0.5 1 0.1 1.5-0.5 0.6-0.5 0.6-1.9v-3.6z"/><path fill-rule="evenodd" class="a" d="m83.3 51.3h-4l-0.7-4.6h-4.9l-0.7 4.6h-3.6l4-25.2h5.8zm-9-8h3.8l-1.9-12.7z"/><path fill-rule="evenodd" class="a" d="m93.4 51.3q-0.1-0.3-0.2-0.5-0.1-0.2-0.1-0.5-0.1-0.3-0.1-0.8 0-0.6 0-1.3v-4q0-1.7-0.6-2.4-0.6-0.8-2-0.8h-1.3v10.3h-4v-25.2h6q3.1 0 4.4 1.4 1.4 1.5 1.4 4.4v2q0 3.9-2.6 5.1 1.6 0.6 2.1 2 0.6 1.4 0.6 3.3v3.9q0 1 0 1.7 0.1 0.7 0.4 1.4zm-4.3-21.6v7.7h1.5q1.1 0 1.8-0.5 0.6-0.6 0.6-2.1v-2.5q0-1.4-0.5-2-0.5-0.6-1.5-0.6z"/><path class="a" d="m125 101.7h3.9v21.6h6.5v3.6h-10.4z"/><path fill-rule="evenodd" class="a" d="m136.8 107.7q0-3.1 1.6-4.7 1.5-1.6 4.5-1.6 2.9 0 4.4 1.6 1.6 1.6 1.6 4.7v13.1q0 3.1-1.6 4.7-1.5 1.6-4.4 1.6-3 0-4.5-1.6-1.6-1.6-1.6-4.7zm4 13.4q0 1.3 0.6 1.9 0.5 0.6 1.5 0.6 0.9 0 1.5-0.6 0.5-0.6 0.5-1.9v-13.6q0-1.4-0.5-2-0.6-0.5-1.5-0.5-1 0-1.5 0.5-0.6 0.6-0.6 2z"/><path fill-rule="evenodd" class="a" d="m151.1 107.7q0-3.1 1.5-4.7 1.6-1.6 4.5-1.6 2.9 0 4.5 1.6 1.5 1.6 1.5 4.7v13.1q0 3.1-1.5 4.7-1.6 1.6-4.5 1.6-2.9 0-4.5-1.6-1.5-1.6-1.5-4.7zm4 13.4q0 1.3 0.5 1.9 0.6 0.6 1.5 0.6 0.9 0 1.5-0.6 0.6-0.6 0.6-1.9v-13.6q0-1.4-0.6-2-0.6-0.5-1.5-0.5-0.9 0-1.5 0.5-0.5 0.6-0.5 2z"/><path fill-rule="evenodd" class="a" d="m171.5 101.7q3 0 4.5 1.5 1.4 1.6 1.4 4.7v3.3q0 3-1.4 4.6-1.5 1.6-4.5 1.6h-1.9v9.5h-3.9v-25.2zm-1.9 3.6v8.5h1.9q0.9 0 1.4-0.5 0.5-0.5 0.5-1.9v-3.8q0-1.3-0.5-1.8-0.5-0.5-1.4-0.5z"/><path class="a" d="m178.9 107.7q0-3.1 1.5-4.7 1.5-1.6 4.4-1.6 2.9 0 4.3 1.6 1.5 1.6 1.5 4.7v0.8h-3.7v-1q0-1.4-0.6-2-0.5-0.5-1.4-0.5-1 0-1.5 0.5-0.5 0.6-0.5 2 0 1.3 0.6 2.2 0.5 1 1.4 1.9 0.9 0.9 1.9 1.8 0.9 0.9 1.8 1.9 0.9 1 1.5 2.4 0.5 1.3 0.5 3.1 0 3.1-1.5 4.7-1.5 1.6-4.4 1.6-2.9 0-4.4-1.6-1.5-1.6-1.5-4.7v-1.5h3.8v1.8q0 1.3 0.5 1.9 0.6 0.5 1.5 0.5 1 0 1.5-0.5 0.6-0.6 0.6-1.9 0-1.3-0.6-2.3-0.6-1-1.4-1.9-0.9-0.9-1.9-1.8-1-0.8-1.9-1.9-0.8-1-1.4-2.4-0.6-1.3-0.6-3.1z"/><path fill-rule="evenodd" class="a" d="m120.2 94.8q-0.1-0.3-0.1-0.5-0.1-0.2-0.2-0.5 0-0.4 0-0.9 0-0.5 0-1.2v-4q0-1.7-0.7-2.5-0.6-0.7-1.9-0.7h-1.4v10.3h-4v-25.2h6q3.1 0 4.5 1.4 1.4 1.5 1.4 4.4v1.9q0 3.9-2.6 5.2 1.5 0.6 2 2 0.6 1.3 0.6 3.3v3.9q0 0.9 0.1 1.6 0.1 0.7 0.3 1.5zm-4.3-21.6v7.7h1.6q1.1 0 1.7-0.6 0.7-0.5 0.7-2.1v-2.5q0-1.3-0.5-1.9-0.5-0.6-1.6-0.6z"/><path fill-rule="evenodd" class="a" d="m139.2 94.8h-4l-0.6-4.6h-4.9l-0.7 4.6h-3.6l4-25.2h5.8zm-9-8h3.8l-1.9-12.8z"/><path class="a" d="m152.5 85.4v3.3q0 3.1-1.5 4.7-1.4 1.6-4.4 1.6-2.9 0-4.4-1.6-1.5-1.6-1.5-4.7v-13.1q0-3.1 1.5-4.7 1.5-1.6 4.4-1.6 3 0 4.4 1.6 1.5 1.6 1.5 4.7v2.5h-3.7v-2.7q0-1.4-0.6-2-0.5-0.5-1.5-0.5-0.9 0-1.5 0.5-0.5 0.6-0.5 2v13.6q0 1.3 0.5 1.9 0.6 0.5 1.5 0.5 1 0 1.5-0.5 0.6-0.6 0.6-1.9v-3.6z"/><path class="a" d="m158.9 80.2h5.5v3.6h-5.5v7.4h6.9v3.6h-10.8v-25.2h10.8v3.6h-6.9z"/><path class="a" d="m179.7 85.4v3.3q0 3.1-1.5 4.7-1.5 1.6-4.4 1.6-2.9 0-4.4-1.6-1.5-1.6-1.5-4.7v-13.1q0-3.1 1.5-4.7 1.5-1.6 4.4-1.6 2.9 0 4.4 1.6 1.5 1.6 1.5 4.7v2.5h-3.7v-2.7q0-1.4-0.6-2-0.6-0.5-1.5-0.5-0.9 0-1.5 0.5-0.6 0.6-0.6 2v13.6q0 1.3 0.6 1.9 0.6 0.5 1.5 0.5 0.9 0 1.5-0.5 0.6-0.6 0.6-1.9v-3.6z"/><path fill-rule="evenodd" class="a" d="m194.9 94.8h-4l-0.7-4.6h-4.8l-0.7 4.6h-3.6l4-25.2h5.8zm-9-8h3.8l-1.9-12.8z"/><path fill-rule="evenodd" class="a" d="m205 94.8q0-0.3-0.1-0.5-0.1-0.2-0.1-0.5-0.1-0.4-0.1-0.9 0-0.5 0-1.2v-4q0-1.7-0.6-2.5-0.6-0.7-2-0.7h-1.4v10.3h-3.9v-25.2h5.9q3.1 0 4.5 1.4 1.4 1.5 1.4 4.4v1.9q0 3.9-2.6 5.2 1.5 0.6 2.1 2 0.5 1.3 0.5 3.3v3.9q0 0.9 0.1 1.6 0.1 0.7 0.4 1.5zm-4.3-21.6v7.7h1.5q1.1 0 1.7-0.6 0.7-0.5 0.7-2.1v-2.5q0-1.3-0.5-1.9-0.5-0.6-1.5-0.6z"/></svg>